<?xml version="1.0" encoding="UTF-8"?>
<svg xmlns="http://www.w3.org/2000/svg" xmlns:xlink="http://www.w3.org/1999/xlink" viewBox="0 0 512 512">
  <defs>
    <style>
      .cls-1 {
        fill: none;
      }

      .cls-2 {
        fill: #0af;
      }

      .cls-3 {
        fill: url(#linear-gradient);
      }

      .cls-4 {
        isolation: isolate;
      }

      .cls-5 {
        fill: #fff;
      }

      .cls-6 {
        opacity: .4;
      }

      .cls-7 {
        mix-blend-mode: overlay;
        opacity: .44;
      }

      .cls-8 {
        clip-path: url(#clippath);
      }
    </style>
    <clipPath id="clippath">
      <rect class="cls-1" width="512" height="512" rx="64" ry="64"/>
    </clipPath>
    <linearGradient id="linear-gradient" x1="256" y1="106" x2="256" y2="406" gradientUnits="userSpaceOnUse">
      <stop offset="0" stop-color="#fff"/>
      <stop offset="1" stop-color="#000"/>
    </linearGradient>
  </defs>
  <g class="cls-4">
    <g id="Layer_5" data-name="Layer 5">
      <g class="cls-8">
      </g>
      <g>
        <g>
          <path class="cls-5" d="M398.08,109.01c-.76-1.93-2.57-3.01-4.41-3.01-1.15,0-2.32.42-3.25,1.32l-84.18,80.76c-3.08,2.96-1,8.17,3.27,8.17h24.89l-79.41,151.4-78.97-151c-.34-.66-.84-1.23-1.44-1.66l-88.8-63.49c-2.03-1.45-4.62.82-3.46,3.03l140.75,268.92c.82,1.56,2.43,2.54,4.19,2.54h55.41c1.76,0,3.37-.98,4.18-2.53l108.68-207.22h29.74c3.33,0,5.62-3.36,4.4-6.48l-31.57-80.76ZM395.51,181.4h-8.94l-4.16,7.94-105.27,200.7-13.81-26.41,84.16-160.46,11.42-21.77h-24.29l55.17-52.93,20.69,52.93h-14.97Z"/>
        </g>
      </g>
      <g>
        <path class="cls-2" d="M398.49,109.01c-.76-1.93-2.57-3.01-4.43-3.01-1.16,0-2.33.42-3.26,1.32l-84.42,80.76c-3.09,2.96-1,8.17,3.28,8.17h24.96l-79.64,151.4-79.2-151c-.35-.66-.84-1.23-1.45-1.66l-89.05-63.49c-2.03-1.45-4.63.82-3.47,3.03l141.15,268.92c.82,1.56,2.44,2.54,4.2,2.54h55.56c1.76,0,3.38-.98,4.2-2.53l108.99-207.22h29.82c3.34,0,5.63-3.36,4.41-6.48l-31.66-80.76ZM395.91,181.4h-8.96l-4.17,7.94-105.56,200.7-13.85-26.41,84.4-160.46,11.45-21.77h-24.36l55.32-52.93,20.75,52.93h-15.01Z"/>
        <g class="cls-7">
          <path class="cls-3" d="M398.49,109.01c-.76-1.93-2.57-3.01-4.43-3.01-1.16,0-2.33.42-3.26,1.32l-84.42,80.76c-3.09,2.96-1,8.17,3.28,8.17h24.96l-79.64,151.4-79.2-151c-.35-.66-.84-1.23-1.45-1.66l-89.05-63.49c-2.03-1.45-4.63.82-3.47,3.03l141.15,268.92c.82,1.56,2.44,2.54,4.2,2.54h55.56c1.76,0,3.38-.98,4.2-2.53l108.99-207.22h29.82c3.34,0,5.63-3.36,4.41-6.48l-31.66-80.76ZM395.91,181.4h-8.96l-4.17,7.94-105.56,200.7-13.85-26.41,84.4-160.46,11.45-21.77h-24.36l55.32-52.93,20.75,52.93h-15.01Z"/>
        </g>
      </g>
    </g>
  </g>
</svg>